<?xml version="1.0" encoding="utf-8"?>
<!-- Generator: Adobe Illustrator 19.0.0, SVG Export Plug-In . SVG Version: 6.00 Build 0)  -->
<svg version="1.1" id="Capa_1" xmlns="http://www.w3.org/2000/svg" xmlns:xlink="http://www.w3.org/1999/xlink" x="0px" y="0px"
	 viewBox="0 0 17.5 11.2" style="enable-background:new 0 0 17.5 11.2;" xml:space="preserve">
<style type="text/css">
	.st0{fill:#FFFFFF;}
</style>
<path class="st0" d="M17.4,1.5c0.3,1.6-0.6,3.3-2.2,4.7c-0.1,1.3-0.7,2.5-1.6,3.3c-0.6,0.6-1.2,1-2,1.3c-0.4,0.1-0.8,0.2-1.2,0.3
	c-0.3,0-0.5,0.1-0.8,0.1c-1.5,0-2.9-0.6-3.9-1.6c-1.1,0-2.2,0-3.2-0.2c0,0,0,0,0,0c0,0-6.5-0.9,1.6-6.1c0,0-0.1,0.1-0.1,0.1l0.8-0.6
	c0,0,0,0,0,0C5,2.4,5.3,2,5.7,1.6c1-1,2.4-1.6,4-1.6c0.3,0,0.5,0,0.8,0.1c0.4,0.1,0.8,0.2,1.2,0.3c0.8,0.3,1.4,0.7,2,1.3
	C14.3,2.3,14.8,3.1,15,4c1.1-0.8,1.9-1.7,2.4-2.7C17.4,1.4,17.4,1.5,17.4,1.5z M4.2,6.9C4.1,6.5,4.1,6.1,4.1,5.6c0-0.1,0-0.1,0-0.2
	c0-0.3,0.1-0.6,0.1-0.9c0,0,0,0.1,0,0.1c-0.8,0.6-1.2,1.6-1,2.1C3.4,6.8,3.8,6.9,4.2,6.9z"/>
</svg>
