<?xml version="1.0" encoding="utf-8"?>
<!-- Generator: Adobe Illustrator 19.0.0, SVG Export Plug-In . SVG Version: 6.00 Build 0)  -->
<svg version="1.1" id="Capa_1" xmlns="http://www.w3.org/2000/svg" xmlns:xlink="http://www.w3.org/1999/xlink" x="0px" y="0px"
	 viewBox="0 0 108.6 70" style="enable-background:new 0 0 108.6 70;" xml:space="preserve">
<style type="text/css">
	.st0{fill:#FFFFFF;}
</style>
<g>
	<path class="st0" d="M107.3,9.2c-2.8,5.8-7.9,11.3-14.4,16.2C88.8,11.3,75.7,1,60.3,1c-12.8,0-24,7.1-29.8,17.6
		c-0.5,0.3-4.3,2.8-4.4,2.8c-49.2,31.1-9.5,36.7-9.5,36.7c0,0,0,0,0.1,0c6.1,1,12.8,1.4,19.7,1.1c6.1,6.1,14.6,9.8,23.9,9.8
		c17.5,0,31.9-13.2,33.8-30.2c0,0,0,0,0,0c10-8.5,15.2-18.7,13.5-28.6C107.5,9.9,107.4,9.6,107.3,9.2z M26.8,28.9
		c-0.4,2-0.5,4-0.5,6.1c0,2.8,0.3,5.5,1,8.1c-2.7-0.3-4.8-0.8-6.5-1.4C19.3,38.5,21.9,32.6,26.8,28.9z"/>
</g>
</svg>
