<?xml version="1.0" encoding="utf-8"?>
<!-- Generator: Adobe Illustrator 19.0.0, SVG Export Plug-In . SVG Version: 6.00 Build 0)  -->
<svg version="1.1" id="Capa_1" xmlns="http://www.w3.org/2000/svg" xmlns:xlink="http://www.w3.org/1999/xlink" x="0px" y="0px"
	 viewBox="0 0 85 11.2" style="enable-background:new 0 0 85 11.2;" xml:space="preserve">
<style type="text/css">
	.st0{fill:#FFFFFF;}
</style>
<path class="st0" d="M29.5,7.3h6.2v0.9h-7.1V3h0.9V7.3z M66.5,3h-0.9v5.3h7.1V7.3h-6.2V3z M45.3,5.6c0,1.4-1.2,2.6-2.6,2.6h-3.6
	c-1.4,0-2.6-1.2-2.6-2.6c0-1.4,1.2-2.6,2.6-2.6h3.6C44.2,3,45.3,4.1,45.3,5.6z M44.4,5.6c0-0.9-0.8-1.7-1.7-1.7h-3.6
	c-0.9,0-1.7,0.8-1.7,1.7c0,0.9,0.8,1.7,1.7,1.7h3.6C43.6,7.3,44.4,6.5,44.4,5.6z M19.1,5.6c0,1.4,1.2,2.6,2.6,2.6h5.1v-3h-2.1v0.9
	h1.2v1.2h-4.2c-0.9,0-1.7-0.7-1.7-1.6c0-0.9,0.8-1.7,1.7-1.7v0h5.1V3h-5.1C20.2,3,19.1,4.1,19.1,5.6z M54,5.5
	c0.3,0.3,0.6,0.7,0.6,1.2c0,0.8-0.7,1.5-1.5,1.5c0,0,0,0,0,0v0h-5.2h-0.2h-0.7V3h0.7h0.2h5v0c0,0,0,0,0,0c0.8,0,1.5,0.7,1.5,1.5
	C54.4,4.9,54.3,5.2,54,5.5z M47.8,5.2h5h0c0.3,0,0.6-0.3,0.6-0.6c0-0.3-0.3-0.6-0.6-0.6h0h-5V5.2z M53.7,6.7c0-0.3-0.3-0.6-0.6-0.6
	h0h-0.2h-0.2h-4.8v1.2h5.3C53.4,7.3,53.7,7,53.7,6.7z M73.8,8.2h0.9V3h-0.9V8.2z M60,3L60,3L60,3h-0.6l-4.1,5.2h1.1l0.8-1L57.4,7
	h2.9l0.7-0.9h-2.9L60,3.8l2,2.6l0.7,0.9l0.8,1h1.2L60.5,3H60z M80.9,3h-0.6v0l0,0h-0.6l-4.1,5.2h1.1l0.8-1L77.8,7h2.9l0.7-0.9h-2.9
	l1.8-2.3l2,2.6l0.7,0.9l0.8,1H85L80.9,3z M17.4,1.5c0.3,1.6-0.6,3.3-2.2,4.7c-0.1,1.3-0.7,2.5-1.6,3.3c-0.6,0.6-1.2,1-2,1.3
	c-0.4,0.1-0.8,0.2-1.2,0.3c-0.3,0-0.5,0.1-0.8,0.1c-1.5,0-2.9-0.6-3.9-1.6c-1.1,0-2.2,0-3.2-0.2c0,0,0,0,0,0c0,0-6.5-0.9,1.6-6.1
	c0,0-0.1,0.1-0.1,0.1l0.8-0.6c0,0,0,0,0,0C5,2.4,5.3,2,5.7,1.6c1-1,2.4-1.6,4-1.6c0.3,0,0.5,0,0.8,0.1c0.4,0.1,0.8,0.2,1.2,0.3
	c0.8,0.3,1.4,0.7,2,1.3C14.3,2.3,14.8,3.1,15,4c1.1-0.8,1.9-1.7,2.4-2.7C17.4,1.4,17.4,1.5,17.4,1.5z M4.2,6.9
	C4.1,6.5,4.1,6.1,4.1,5.6c0-0.1,0-0.1,0-0.2c0-0.3,0.1-0.6,0.1-0.9c0,0,0,0.1,0,0.1c-0.8,0.6-1.2,1.6-1,2.1C3.4,6.8,3.8,6.9,4.2,6.9
	z"/>
</svg>
