<?xml version="1.0" encoding="utf-8"?>
<!-- Generator: Adobe Illustrator 19.0.0, SVG Export Plug-In . SVG Version: 6.00 Build 0)  -->
<svg version="1.1" id="Capa_1" xmlns="http://www.w3.org/2000/svg" xmlns:xlink="http://www.w3.org/1999/xlink" x="0px" y="0px"
	 viewBox="0 0 520 70" style="enable-background:new 0 0 520 70;" xml:space="preserve">
<style type="text/css">
	.st0{fill:#FFFFFF;}
</style>
<g>
	<path class="st0" d="M117.4,35c0,8.8,7.2,15.6,15.9,15.6h31.1V32.3h-12.7v5.6h7.1V45h-25.5c-5.7,0-10.4-4.3-10.4-10
		c0-5.7,4.6-10.4,10.4-10.4v0h31.1v-5.6h-31.1C124.5,19.1,117.4,26.2,117.4,35z"/>
	<path class="st0" d="M107.3,9.2c-2.8,5.8-7.9,11.3-14.4,16.2C88.8,11.3,75.7,1,60.3,1c-12.8,0-24,7.1-29.8,17.6
		c-0.5,0.3-4.3,2.8-4.4,2.8c-49.2,31.1-9.5,36.7-9.5,36.7c0,0,0,0,0.1,0c6.1,1,12.8,1.4,19.7,1.1c6.1,6.1,14.6,9.8,23.9,9.8
		c17.5,0,31.9-13.2,33.8-30.2c0,0,0,0,0,0c10-8.5,15.2-18.7,13.5-28.6C107.5,9.9,107.4,9.6,107.3,9.2z M26.8,28.9
		c-0.4,2-0.5,4-0.5,6.1c0,2.8,0.3,5.5,1,8.1c-2.7-0.3-4.8-0.8-6.5-1.4C19.3,38.5,21.9,32.6,26.8,28.9z"/>
	<polygon class="st0" points="180.9,19.1 175.3,19.1 175.3,51 218.7,51 218.7,45.4 180.9,45.4 	"/>
	<polygon class="st0" points="405.7,19.1 400.1,19.1 400.1,51 443.5,51 443.5,45.4 405.7,45.4 	"/>
	<rect x="450.3" y="19.3" class="st0" width="5.6" height="31.7"/>
	<path class="st0" d="M261.1,19.1h-21.8c-8.8,0-15.9,7.2-15.9,15.9c0,8.8,7.2,15.9,15.9,15.9h21.8c8.8,0,15.9-7.1,15.9-15.9
		C277.1,26.2,269.9,19.1,261.1,19.1z M261.1,45.4h-21.8c-5.7,0-10.4-4.6-10.4-10.4c0-5.7,4.6-10.4,10.4-10.4h21.8
		c5.7,0,10.4,4.6,10.4,10.4C271.5,40.7,266.9,45.4,261.1,45.4z"/>
	<polygon class="st0" points="493.6,19.3 490,19.3 490,19.3 490,19.3 486.6,19.3 461.9,51 468.9,51 473.5,45 474.7,43.5 492.5,43.5 
		496.8,37.9 479.1,37.9 490.1,23.9 502.3,39.4 506.7,45 511.4,51 518.5,51 	"/>
	<polygon class="st0" points="366,19.3 366,19.3 366,19.3 362.5,19.3 337.8,51 344.8,51 349.5,45 350.6,43.5 368.4,43.5 372.7,37.9 
		355,37.9 366,23.9 378.3,39.4 382.7,45 387.4,51 394.5,51 369.5,19.3 	"/>
	<path class="st0" d="M330.1,34.5c1.3-1.6,2.1-3.6,2.1-5.9c0-5.1-4.2-9.3-9.3-9.3c-0.1,0-0.2,0-0.2,0v0H292h-1.1h-4.5V51h4.5h1.1
		h31.9v0c0.1,0,0.2,0,0.2,0c5.1,0,9.3-4.2,9.3-9.3C333.5,38.8,332.1,36.2,330.1,34.5z M292,24.9h30.6h0.2c2.1,0,3.7,1.7,3.7,3.7
		c0,2.1-1.7,3.7-3.7,3.7h-0.2H292V24.9z M324.1,45.4H292v-7.5h29.2h1.4h1.3h0.2c2.1,0,3.7,1.7,3.7,3.7
		C327.9,43.7,326.2,45.4,324.1,45.4z"/>
</g>
</svg>
