<svg xmlns="http://www.w3.org/2000/svg" x="0" y="0" width="512" height="512" viewBox="0 0 512 512" style="enable-background:new 0 0 511.999 511.999;version:1"><g><path d="M496.1 435.7L374.9 332.6c-12.5-11.3-25.9-16.5-36.8-16C366.7 283.1 384 239.5 384 192 384 86 298 0 192 0 86 0 0 86 0 192s86 192 192 192c47.5 0 91.1-17.3 124.6-45.9 -0.5 10.8 4.7 24.2 16 36.8L435.7 496.1c17.7 19.6 46.5 21.3 64.1 3.7C517.4 482.2 515.8 453.4 496.1 435.7zM192 320c-70.7 0-128-57.3-128-128 0-70.7 57.3-128 128-128 70.7 0 128 57.3 128 128C320 262.7 262.7 320 192 320z"/></g></svg>
